<svg id="svg" version="1.1" width="400" height="225" viewBox="0 0 400 225" xmlns="http://www.w3.org/2000/svg"><g id="svgg"><path id="path0" d="M201.069 67.864 C 199.021 68.179,197.565 68.709,196.328 69.589 C 195.626 70.089,195.429 70.156,195.350 69.922 C 195.296 69.761,194.925 69.300,194.526 68.898 L 193.800 68.168 176.879 68.173 L 159.959 68.178 159.299 68.757 C 158.512 69.448,157.911 69.497,157.595 68.896 C 157.468 68.655,157.267 68.392,157.148 68.313 C 157.030 68.234,146.291 68.171,133.283 68.172 L 109.632 68.175 109.212 68.658 C 108.674 69.276,107.998 69.271,107.254 68.645 L 106.665 68.150 99.447 68.206 C 91.396 68.268,91.703 68.214,91.086 69.671 C 90.591 70.841,90.703 110.214,91.204 111.024 C 91.748 111.904,92.440 112.210,93.829 112.187 C 95.213 112.163,102.667 111.197,102.986 111.001" stroke="none" fill="#060606" fill-rule="evenodd"></path></g></svg>
